<?xml version="1.0" standalone="no"?>
<!DOCTYPE svg PUBLIC "-//W3C//DTD SVG 20010904//EN"
 "http://www.w3.org/TR/2001/REC-SVG-20010904/DTD/svg10.dtd">
<svg version="1.0" xmlns="http://www.w3.org/2000/svg"
 width="943.000000pt" height="331.000000pt" viewBox="0 0 943.000000 331.000000"
 preserveAspectRatio="xMidYMid meet">

<g transform="translate(0.000000,331.000000) scale(0.100000,-0.100000)"
fill="#000000" stroke="none">
<path d="M5365 3268 c-105 -40 -387 -260 -597 -467 l-128 -125 0 154 c0 174
-10 208 -70 267 -74 72 -134 82 -500 82 -250 0 -387 -7 -542 -30 -142 -21
-231 -100 -245 -218 -5 -43 -9 -51 -22 -45 -126 53 -200 72 -330 85 -176 17
-402 -13 -620 -83 -84 -27 -100 -36 -148 -84 -54 -54 -55 -54 -117 -54 -176 0
-881 -267 -994 -376 -19 -19 -40 -34 -45 -34 -35 0 -495 -230 -687 -343 -238
-141 -289 -204 -277 -337 13 -148 178 -508 265 -580 55 -46 133 -66 201 -52
29 6 58 9 63 6 5 -3 29 -47 55 -97 54 -108 151 -278 204 -359 21 -32 35 -59
31 -61 -4 -2 -94 -5 -200 -6 -211 -1 -236 -7 -262 -57 -17 -31 -19 -139 -3
-155 7 -7 5 -24 -4 -52 -17 -47 -11 -109 13 -145 25 -38 74 -52 176 -52 81 0
94 -3 115 -22 19 -17 39 -23 92 -26 60 -4 70 -2 98 22 l30 26 506 2 c489 3
506 4 527 23 13 11 31 34 41 50 l19 30 0 -35 c0 -50 31 -96 75 -110 49 -16
120 -7 156 19 36 27 57 27 87 -1 20 -19 35 -23 92 -23 58 0 72 4 93 23 24 23
29 23 239 23 162 0 220 3 240 13 22 12 33 12 65 1 58 -19 1046 -19 1087 1 25
12 35 11 78 -2 65 -22 180 -15 238 14 l43 21 29 -22 c26 -20 41 -22 141 -21
62 0 123 1 137 1 14 1 357 -1 762 -3 633 -4 742 -2 773 10 31 13 40 13 80 -1
65 -22 176 -14 238 16 l48 23 25 -23 c24 -22 33 -24 142 -24 64 1 126 1 137 2
11 1 519 -1 1129 -3 1197 -4 1155 -5 1190 48 25 38 31 108 13 150 -11 27 -12
39 -4 47 17 17 14 124 -3 156 -27 50 -51 55 -277 56 -114 0 -216 0 -225 0 -25
0 -23 6 11 35 42 35 81 119 81 173 0 26 -7 73 -15 106 -8 33 -14 65 -15 72 0
6 37 33 83 59 133 76 341 211 364 236 12 13 32 45 44 72 18 41 21 61 16 115
-16 181 -152 520 -241 598 -47 42 -101 63 -158 63 -23 0 -41 7 -54 22 -32 36
-293 226 -389 284 -105 62 -164 79 -231 64 -63 -14 -92 -31 -143 -83 l-44 -45
-43 85 c-55 108 -95 162 -181 244 -107 104 -234 177 -392 226 l-76 23 188 -4
188 -3 -21 22 c-16 17 -25 48 -35 121 -20 139 -32 177 -53 169 -9 -3 -82 -27
-162 -51 -173 -54 -300 -85 -312 -78 -5 4 -7 17 -4 29 6 22 4 23 -26 14 -18
-5 -52 -9 -75 -9 -46 0 -73 25 -73 68 0 24 -2 24 -57 17 -32 -4 -121 -19 -199
-34 l-141 -27 -38 44 c-21 25 -57 53 -79 63 -113 51 -264 -9 -322 -127 -23
-47 -26 -64 -21 -113 l5 -59 -71 82 c-40 44 -112 122 -162 173 -79 80 -97 93
-148 108 -70 20 -135 14 -193 -19 l-39 -23 -43 25 c-49 28 -149 38 -197 20z
m170 -33 c20 -8 48 -28 64 -46 l29 -31 48 36 c64 49 108 61 164 46 36 -10 61
-29 129 -99 156 -162 268 -299 322 -396 40 -72 56 -94 69 -90 12 4 37 -27 100
-122 46 -71 87 -132 91 -136 4 -5 27 22 52 60 76 113 65 106 138 88 35 -8 81
-15 103 -15 l38 0 -48 -53 c-109 -120 -173 -274 -181 -438 -17 -306 172 -576
472 -676 70 -24 96 -27 210 -28 111 0 140 3 200 24 116 39 193 87 280 175 130
131 195 292 195 480 0 187 -63 339 -195 472 -132 134 -301 203 -492 204 l-83
0 33 43 c18 24 39 58 46 75 16 38 31 39 143 18 317 -61 560 -276 659 -583 l23
-73 96 102 96 102 64 4 c63 3 67 2 150 -48 119 -73 314 -216 374 -274 50 -48
53 -49 113 -50 73 -1 102 -19 150 -92 69 -103 159 -361 169 -484 4 -52 2 -72
-14 -100 -21 -40 -128 -114 -354 -247 -82 -47 -148 -90 -148 -94 0 -5 9 -48
21 -96 33 -139 14 -219 -61 -258 -70 -36 -335 -89 -505 -100 -81 -6 -94 -4
-135 17 -55 28 -82 68 -99 141 l-12 55 -85 48 c-46 26 -148 88 -226 138 -151
97 -184 130 -195 199 -6 37 -7 39 -37 33 -107 -22 -189 -27 -277 -16 -188 22
-368 103 -494 222 -82 76 -99 69 -53 -22 29 -55 33 -73 33 -139 0 -63 -4 -84
-26 -122 -24 -42 -25 -49 -12 -73 61 -116 -8 -275 -151 -349 -54 -28 -71 -32
-141 -32 -55 0 -89 5 -110 16 -26 15 -109 18 -685 24 l-655 7 -49 -22 c-188
-85 -390 66 -373 276 3 39 13 77 26 99 l21 37 -20 28 c-59 82 -64 176 -15 293
5 11 3 17 -6 17 -22 0 -59 42 -59 69 0 13 5 39 12 58 6 18 10 34 7 37 -2 2
-60 -3 -129 -11 -90 -12 -220 -16 -462 -17 -325 -1 -337 0 -365 20 -33 24 -70
93 -78 147 l-6 38 -45 -41 c-24 -22 -65 -54 -91 -70 -46 -30 -47 -31 -44 -79
5 -94 -44 -147 -169 -185 -104 -31 -250 -62 -365 -76 -75 -9 -104 -19 -204
-70 -251 -125 -719 -300 -805 -300 -40 0 -42 -2 -64 -49 -18 -40 -34 -57 -80
-84 -147 -89 -438 -217 -492 -217 -100 0 -141 53 -342 432 l-100 187 -43 -19
c-73 -31 -108 -34 -156 -12 -24 10 -54 30 -66 43 -64 71 -222 441 -223 522 0
39 23 88 56 119 38 34 196 132 354 219 143 78 472 234 516 245 16 3 43 21 59
40 64 71 457 237 778 330 145 42 200 44 251 9 20 -14 39 -25 41 -25 3 0 5 14
5 30 0 75 56 128 173 165 157 50 254 66 428 72 232 8 355 -18 500 -106 l64
-39 11 103 c21 184 49 208 284 237 146 18 761 18 812 0 45 -16 94 -69 105
-114 4 -18 6 -139 3 -269 l-5 -235 169 173 c193 198 310 302 486 433 177 131
219 147 295 115z m1036 -92 c12 -16 12 -17 -2 -6 -9 7 -20 9 -24 5 -5 -4 -5
-1 -1 6 9 16 11 15 27 -5z m-204 -9 c0 -7 -6 -10 -14 -7 -7 3 -13 8 -13 12 0
4 6 8 13 8 8 0 14 -6 14 -13z m1326 -38 c13 -10 16 -21 11 -39 -7 -32 -29 -40
-199 -70 -169 -30 -224 -19 -115 23 19 7 59 24 88 37 29 13 58 21 64 17 6 -4
8 -3 5 3 -8 13 20 26 35 16 7 -4 8 -1 3 7 -6 10 -2 11 16 7 13 -3 31 -2 39 3
20 13 32 12 53 -4z m-1156 -28 c20 -16 16 -82 -7 -109 -14 -17 -18 -19 -14 -6
26 74 -73 112 -129 49 -18 -20 -18 -20 2 -15 30 8 53 -14 40 -38 -11 -22 -39
-25 -57 -7 -20 20 -14 84 11 113 36 43 111 49 154 13z m-217 2 c0 -5 -5 -10
-11 -10 -5 0 -7 5 -4 10 3 6 8 10 11 10 2 0 4 -4 4 -10z m995 -90 c-3 -5 -12
-10 -18 -10 -7 0 -6 4 3 10 19 12 23 12 15 0z m-985 -10 c8 -5 11 -12 8 -16
-4 -3 -14 1 -23 10 -18 17 -9 21 15 6z m440 -70 c0 -5 -5 -10 -11 -10 -5 0 -7
5 -4 10 3 6 8 10 11 10 2 0 4 -4 4 -10z m518 -6 c10 -7 -31 -115 -59 -158 -67
-100 -180 -154 -339 -163 -183 -10 -345 62 -406 179 -16 31 -16 32 5 49 17 14
28 16 48 8 30 -11 79 -4 144 22 46 18 47 17 93 -6 98 -49 199 -42 331 25 47
24 94 40 115 40 27 0 32 3 20 10 -11 8 -7 9 15 4 17 -4 32 -8 33 -10z m-325
-29 c-3 -9 -8 -14 -10 -11 -3 3 -2 9 2 15 9 16 15 13 8 -4z m-394 -239 l41
-29 -41 -51 c-23 -28 -44 -49 -47 -46 -4 2 -35 45 -70 94 l-63 89 33 27 33 28
36 -42 c21 -23 56 -55 78 -70z m910 -794 c132 -67 89 -262 -58 -262 -147 0
-195 183 -69 260 41 25 82 25 127 2z m-4065 -355 c64 -61 67 -62 361 -65 190
-2 323 1 449 13 l178 16 32 -38 c33 -37 33 -37 19 -82 -20 -63 -11 -149 22
-216 25 -53 26 -55 9 -87 -10 -18 -19 -64 -22 -103 -7 -126 60 -244 170 -299
68 -34 162 -36 245 -4 58 21 58 21 698 14 597 -6 644 -8 695 -26 71 -25 125
-25 203 1 121 40 215 137 237 246 10 46 9 67 -4 119 -14 60 -14 66 4 106 11
24 20 55 20 70 0 37 15 43 50 18 135 -96 420 -164 595 -142 l60 7 28 -47 c30
-53 108 -109 346 -253 133 -80 134 -81 148 -130 8 -28 19 -54 24 -59 5 -6 9
-14 9 -19 0 -5 -104 -7 -248 -4 -222 5 -253 4 -301 -13 -47 -16 -58 -16 -75
-5 -15 10 -56 14 -141 14 -66 0 -197 0 -291 1 -167 2 -171 2 -198 -22 l-28
-24 -52 26 c-41 20 -65 25 -121 24 -129 -2 -377 -3 -705 -3 -179 0 -538 -1
-798 -1 l-473 -2 -26 -22 -27 -23 -50 26 c-42 22 -63 26 -126 25 -41 0 -138
-1 -215 -1 -77 0 -149 0 -160 -1 -21 0 -46 0 -180 0 -83 0 -122 0 -215 1 -30
1 -118 1 -195 0 -77 0 -169 0 -205 0 -36 1 -76 0 -90 -2 -14 -1 -162 -2 -330
-1 -628 3 -634 3 -661 -23 l-24 -23 -52 24 c-50 22 -59 23 -387 24 -185 1
-336 5 -336 9 0 3 24 17 53 29 28 12 108 52 176 88 104 56 130 75 159 114 18
27 42 48 51 48 18 0 324 101 431 143 114 45 292 123 387 171 77 38 109 48 195
60 193 27 391 79 463 121 64 37 115 124 115 196 0 18 8 34 23 44 21 15 23 14
37 -7 8 -13 28 -36 44 -51z m-1417 -1024 c50 -25 78 -65 77 -112 -2 -50 -27
-86 -75 -108 -28 -12 -39 -23 -39 -38 0 -12 -6 -30 -14 -41 -14 -18 -28 -19
-228 -18 -117 0 -222 1 -233 1 -11 1 -63 -1 -115 -3 -52 -2 -182 -3 -287 -4
-163 0 -193 -2 -193 -15 0 -21 -32 -35 -79 -35 -30 0 -44 6 -59 25 -19 24 -25
25 -129 25 -135 0 -153 9 -153 78 0 26 6 56 14 67 7 11 15 23 17 26 2 4 -4 16
-14 27 -26 29 -20 122 9 137 13 7 266 9 743 8 674 -2 724 -3 758 -20z m1265
13 c20 -7 40 -10 45 -6 4 5 78 10 163 13 118 4 161 3 179 -8 21 -11 31 -10 64
1 51 18 114 18 165 0 28 -10 44 -11 48 -5 4 7 68 10 173 10 91 -1 192 1 224 5
140 16 250 -95 216 -218 -22 -82 -95 -128 -204 -128 -49 0 -126 27 -139 49
-10 16 -26 14 -26 -3 0 -8 -10 -22 -22 -30 -30 -21 -185 -22 -213 -2 -16 11
-24 11 -52 0 -41 -17 -138 -17 -178 0 -24 10 -34 10 -50 0 -15 -9 -62 -12
-180 -9 -88 2 -176 4 -195 3 -140 -6 -176 -2 -217 19 l-41 22 -15 -22 c-14
-22 -44 -24 -237 -19 -8 0 -67 -2 -129 -5 -107 -4 -116 -6 -139 -30 -20 -22
-29 -25 -70 -20 -32 3 -51 11 -61 26 -11 17 -24 21 -67 21 -43 0 -58 -5 -78
-25 -29 -29 -80 -33 -114 -9 -19 13 -22 24 -22 90 0 61 4 78 20 94 11 11 25
20 30 20 16 0 12 27 -5 34 -19 7 -21 106 -3 124 14 14 913 18 922 3 3 -5 23
-3 43 5 48 17 118 17 165 0z m1899 -12 c10 -13 14 -12 29 1 15 14 89 15 621
14 332 -1 620 -1 639 1 161 12 223 -4 267 -69 63 -92 30 -206 -72 -252 -68
-31 -185 -21 -236 20 -23 18 -24 18 -50 -10 l-27 -29 -722 0 -722 1 -24 24
-24 24 -25 -24 c-22 -23 -32 -25 -107 -25 -113 0 -132 11 -136 76 -2 36 1 54
13 64 19 16 19 39 0 64 -18 24 -20 107 -3 124 19 19 255 16 292 -3 25 -13 31
-14 45 -1 29 26 220 26 242 0z m2197 11 c7 -3 18 -18 23 -35 l11 -30 33 29
c49 42 95 54 184 48 42 -4 150 -7 241 -7 375 -2 1145 -2 1283 0 102 1 152 -2
162 -10 24 -20 29 -75 11 -111 -20 -40 -20 -48 0 -88 11 -21 14 -44 10 -67
-12 -63 -15 -64 -371 -60 -176 3 -327 4 -335 4 -8 0 -145 0 -305 0 -159 0
-308 -1 -330 -1 -22 -1 -88 -1 -147 0 -150 1 -158 1 -245 0 -43 0 -91 0 -108
1 -16 0 -109 -1 -205 -3 -199 -5 -219 1 -221 58 l-1 32 -8 -33 c-4 -19 -13
-39 -19 -45 -13 -13 -157 -23 -195 -13 -14 3 -32 13 -40 22 -20 20 -21 84 -1
110 8 10 14 28 14 39 0 11 -6 29 -14 39 -20 26 -19 85 2 108 14 15 33 18 135
18 81 0 130 -5 153 -14 22 -10 37 -11 41 -5 3 6 14 13 24 17 19 7 195 4 218
-3z"/>
<path d="M5430 3059 c-30 -22 -54 -44 -52 -50 1 -6 -1 -8 -6 -5 -11 6 -74 -38
-67 -47 3 -4 2 -5 -1 -2 -12 8 -45 -16 -38 -28 4 -7 4 -9 -1 -5 -11 10 -76
-42 -68 -55 3 -6 1 -7 -5 -3 -10 6 -53 -27 -119 -90 -12 -12 -19 -25 -15 -30
4 -4 2 -4 -4 -1 -15 9 -287 -270 -278 -285 4 -6 3 -8 -3 -5 -15 9 -126 -120
-117 -134 4 -7 3 -9 -3 -6 -13 8 -115 -112 -106 -126 3 -5 1 -7 -5 -3 -6 3
-20 -7 -31 -23 l-21 -29 39 -58 c53 -79 210 -246 223 -238 6 4 8 3 5 -3 -4 -5
4 -19 16 -29 106 -91 135 -114 143 -114 5 1 39 42 76 93 70 96 234 287 246
287 4 0 21 -27 39 -59 41 -74 132 -182 147 -174 6 3 8 3 4 -2 -8 -9 23 -52 53
-73 19 -13 25 -11 67 18 81 57 93 71 79 89 -10 14 -10 14 5 3 15 -12 26 -5 95
59 90 84 94 89 86 104 -4 5 -3 7 2 3 4 -4 13 -3 20 2 13 10 105 -172 165 -325
17 -44 35 -84 40 -88 9 -10 141 63 135 73 -6 9 45 4 53 -6 4 -4 0 -5 -9 -1
-25 8 -59 -68 -59 -132 0 -52 24 -116 39 -106 5 2 15 -3 22 -13 13 -15 12 -16
-3 -3 -10 7 -18 10 -18 5 0 -4 12 -17 26 -29 l25 -20 -26 -52 c-48 -93 -34
-177 41 -242 48 -43 73 -51 120 -41 38 9 85 4 115 -11 20 -10 72 21 96 58 13
19 18 45 17 89 -1 70 -31 134 -86 179 -21 17 -28 29 -20 32 6 2 10 9 7 13 -3
5 -1 11 5 15 5 3 10 1 10 -6 0 -15 47 27 62 56 20 36 26 84 17 126 -11 48 -60
124 -91 140 -16 9 -19 8 -12 -3 10 -16 15 -42 6 -33 -4 4 -7 12 -7 18 -1 7 -6
11 -13 10 -6 -2 -9 3 -6 11 10 25 -105 36 -163 16 -24 -8 -25 -8 -9 3 42 28
195 144 243 184 l52 44 -55 107 c-113 218 -344 570 -365 556 -6 -3 -8 -12 -5
-20 3 -8 1 -14 -4 -14 -14 0 -12 24 2 38 8 8 2 22 -28 58 -21 25 -50 61 -64
78 -34 44 -154 174 -145 157 6 -9 4 -12 -4 -7 -6 4 -9 11 -7 15 8 12 -79 93
-89 84 -4 -5 -5 -3 -2 3 4 6 -2 19 -13 29 -20 18 -22 16 -114 -77 l-94 -95
-62 94 c-34 51 -65 93 -68 93 -4 0 -32 -19 -62 -41z m400 -13 c0 -11 -19 -15
-25 -6 -3 5 1 10 9 10 9 0 16 -2 16 -4z m-292 -51 c-3 -3 -9 2 -12 12 -6 14
-5 15 5 6 7 -7 10 -15 7 -18z m332 22 c0 -2 -10 -12 -22 -23 l-23 -19 19 23
c18 21 26 27 26 19z m-632 -147 c-7 -10 -14 -17 -17 -15 -4 4 18 35 25 35 2 0
-1 -9 -8 -20z m32 6 c0 -2 -8 -10 -17 -17 -16 -13 -17 -12 -4 4 13 16 21 21
21 13z m-177 -121 c-3 -9 -8 -14 -10 -11 -3 3 -2 9 2 15 9 16 15 13 8 -4z
m1137 -169 c0 -3 -4 -8 -10 -11 -5 -3 -10 -1 -10 4 0 6 5 11 10 11 6 0 10 -2
10 -4z m47 -71 c0 -8 -4 -12 -9 -9 -5 3 -6 10 -3 15 9 13 12 11 12 -6z m83
-140 c14 -19 14 -19 -2 -6 -10 7 -18 18 -18 24 0 6 1 8 3 6 1 -2 9 -13 17 -24z
m-1665 -54 c3 -5 2 -12 -3 -15 -5 -3 -9 1 -9 9 0 17 3 19 12 6z m1720 -39 c-3
-3 -11 0 -18 7 -9 10 -8 11 6 5 10 -3 15 -9 12 -12z m-1761 -23 c-3 -5 -10 -7
-15 -3 -5 3 -7 10 -3 15 3 5 10 7 15 3 5 -3 7 -10 3 -15z m-29 -28 c3 -5 2
-12 -3 -15 -5 -3 -9 1 -9 9 0 17 3 19 12 6z m-14 -38 c13 -17 13 -17 -6 -3
-11 8 -22 16 -24 17 -2 2 0 3 6 3 6 0 17 -8 24 -17z m-77 -68 c3 -8 1 -15 -4
-15 -6 0 -10 7 -10 15 0 8 2 15 4 15 2 0 6 -7 10 -15z m1993 -20 c0 -8 -4 -12
-9 -9 -5 3 -6 10 -3 15 9 13 12 11 12 -6z m-677 -30 c0 -8 -2 -15 -4 -15 -2 0
-6 7 -10 15 -3 8 -1 15 4 15 6 0 10 -7 10 -15z m-40 -9 c0 -2 -7 -7 -16 -10
-8 -3 -12 -2 -9 4 6 10 25 14 25 6z m-1212 -26 c-7 -10 -14 -17 -17 -15 -4 4
18 35 25 35 2 0 -1 -9 -8 -20z m582 -4 c0 -2 -8 -10 -17 -17 -16 -13 -17 -12
-4 4 13 16 21 21 21 13z m-545 -34 c-3 -3 -11 0 -18 7 -9 10 -8 11 6 5 10 -3
15 -9 12 -12z m1865 4 c0 -2 -7 -7 -16 -10 -8 -3 -12 -2 -9 4 6 10 25 14 25 6z
m-1373 -21 c0 -8 -4 -12 -9 -9 -5 3 -6 10 -3 15 9 13 12 11 12 -6z m1418 -4
c3 -5 2 -12 -3 -15 -5 -3 -9 1 -9 9 0 17 3 19 12 6z m-1133 -74 c-7 -8 -8 -18
-4 -22 4 -5 1 -5 -5 -1 -10 5 -10 11 -1 26 7 11 14 17 17 15 2 -3 -1 -11 -7
-18z m-641 -54 c13 -16 12 -17 -3 -4 -17 13 -22 21 -14 21 2 0 10 -8 17 -17z
m46 -37 c-3 -7 1 -24 10 -37 l15 -24 -21 23 c-17 20 -20 52 -4 52 3 0 3 -6 0
-14z m148 -25 c3 -5 2 -12 -3 -15 -5 -3 -9 1 -9 9 0 17 3 19 12 6z m1251 -43
c4 -7 4 -10 -1 -6 -4 4 -15 2 -24 -5 -14 -11 -14 -10 -2 6 16 20 18 21 27 5z
m-126 -2 c0 -3 -4 -8 -10 -11 -5 -3 -10 -1 -10 4 0 6 5 11 10 11 6 0 10 -2 10
-4z m-1175 -15 c3 -5 2 -12 -3 -15 -5 -3 -9 1 -9 9 0 17 3 19 12 6z m1516 -56
c52 -27 64 -46 75 -113 4 -31 1 -42 -25 -69 -21 -24 -39 -33 -61 -33 -70 0
-150 69 -150 129 0 43 6 54 50 86 42 31 49 31 111 0z m166 -147 c-3 -8 -6 -5
-6 6 -1 11 2 17 5 13 3 -3 4 -12 1 -19z m-362 -58 c3 -6 -1 -7 -9 -4 -18 7
-21 14 -7 14 6 0 13 -4 16 -10z m220 -119 c49 -22 70 -46 82 -91 13 -50 0
-100 -36 -132 -26 -23 -41 -28 -83 -28 -134 0 -218 110 -158 208 36 60 119 78
195 43z"/>
<path d="M6322 1654 c-55 -38 -48 -106 16 -149 111 -76 194 52 91 140 -35 28
-74 32 -107 9z m117 -30 c39 -50 18 -124 -35 -124 -33 0 -84 47 -84 76 0 32
42 74 74 74 15 0 33 -11 45 -26z"/>
<path d="M6345 1610 c-25 -28 -10 -71 28 -84 36 -13 61 2 65 37 7 61 -53 91
-93 47z m83 -33 c4 -33 -18 -45 -54 -29 -23 11 -32 41 -17 56 4 4 21 6 38 4
24 -2 31 -8 33 -31z"/>
<path d="M6373 1330 c-58 -26 -80 -67 -74 -137 2 -23 60 -73 85 -73 103 0 167
118 99 182 -48 45 -64 49 -110 28z m98 -39 c39 -40 38 -74 -5 -117 -41 -41
-82 -45 -113 -11 -36 38 -34 88 6 128 38 38 74 38 112 0z"/>
<path d="M6355 1276 c-24 -36 -16 -85 18 -109 l27 -21 27 20 c41 31 48 47 34
82 -12 28 -46 52 -76 52 -8 0 -22 -11 -30 -24z m91 -21 c14 -22 15 -30 4 -50
-13 -24 -42 -37 -66 -28 -23 9 -32 51 -19 91 8 23 63 14 81 -13z"/>
<path d="M3870 2994 c-137 -11 -269 -27 -278 -33 -15 -9 -32 -212 -32 -387 0
-204 26 -520 60 -729 6 -33 13 -75 16 -92 l5 -33 152 0 c233 0 666 31 697 50
9 5 9 21 1 65 -6 31 -16 129 -23 216 -10 143 -13 159 -29 154 -34 -11 -187
-25 -276 -25 l-93 0 -1 113 c0 61 -4 148 -8 192 -4 44 -6 82 -4 84 6 9 109 20
245 27 l137 7 3 191 c2 105 2 193 0 195 -3 6 -511 10 -572 5z"/>
<path d="M3330 2646 c0 -2 8 -10 18 -17 15 -13 16 -12 3 4 -13 16 -21 21 -21
13z"/>
<path d="M4285 2518 c-83 -37 -195 -99 -195 -109 0 -9 61 -169 64 -169 10 0
144 59 208 91 47 24 78 45 78 55 0 27 -61 164 -73 164 -7 0 -43 -15 -82 -32z"/>
<path d="M8365 2157 c-180 -201 -388 -514 -565 -850 l-71 -135 43 -30 c61 -41
223 -142 290 -180 l57 -33 43 68 43 68 6 -97 c4 -53 14 -130 23 -172 l17 -76
47 0 c116 1 432 62 432 85 0 6 -9 51 -19 100 -11 50 -23 117 -26 150 l-6 60
117 60 c104 54 385 222 408 245 19 19 -38 217 -103 354 -40 87 -41 88 -63 74
-201 -131 -532 -322 -548 -316 -10 4 129 188 213 282 35 39 78 88 96 108 l32
37 -114 85 c-110 81 -246 172 -272 182 -7 3 -43 -28 -80 -69z"/>
<path d="M935 2079 c-176 -82 -400 -205 -537 -292 l-57 -37 16 -52 c32 -110
136 -336 162 -352 4 -3 57 17 118 43 l112 49 12 -32 c46 -117 296 -586 333
-624 11 -11 28 -7 100 22 79 33 283 133 314 154 24 16 -128 352 -277 612 -51
90 -58 106 -45 115 71 46 151 99 158 105 14 14 -192 381 -213 379 -3 0 -91
-40 -196 -90z"/>
<path d="M4725 1690 c-3 -5 -2 -10 4 -10 5 0 13 5 16 10 3 6 2 10 -4 10 -5 0
-13 -4 -16 -10z"/>
<path d="M4775 1690 c27 -12 43 -12 25 0 -8 5 -22 9 -30 9 -10 0 -8 -3 5 -9z"/>
<path d="M4820 1673 c0 -5 9 -15 20 -23 10 -8 22 -27 25 -42 4 -15 11 -28 15
-28 11 0 -12 -55 -33 -81 -9 -10 -12 -19 -7 -19 5 0 21 18 36 39 24 37 25 42
13 78 -7 21 -17 44 -23 51 -12 17 -46 35 -46 25z"/>
<path d="M5170 1643 c-17 -22 -20 -36 -15 -68 7 -51 7 -79 -1 -131 -4 -30 -1
-49 10 -66 14 -22 14 -26 0 -47 -12 -17 -15 -34 -10 -64 8 -47 8 -46 0 -105
-4 -27 -2 -48 7 -58 9 -11 9 -18 1 -26 -19 -19 -14 -83 8 -111 29 -36 56 -42
99 -22 20 10 42 21 50 25 8 3 20 22 26 41 l12 34 209 3 209 2 20 -42 c13 -29
27 -44 42 -46 12 -2 27 -10 33 -18 46 -54 137 40 109 113 -6 17 -5 38 2 63 9
30 9 46 0 69 -10 22 -10 34 -1 51 14 27 5 83 -16 100 -13 11 -13 15 1 30 23
26 28 72 12 111 -12 30 -12 39 -1 60 19 34 17 59 -6 97 -15 24 -27 32 -49 32
-17 0 -32 -4 -35 -9 -3 -4 -19 -11 -35 -14 -18 -4 -36 -18 -47 -37 l-18 -30
-217 0 -217 0 -16 26 c-18 26 -92 64 -126 64 -10 0 -28 -12 -40 -27z m108 -13
c10 0 26 -8 35 -18 14 -16 17 -55 17 -311 1 -259 -1 -295 -15 -311 -9 -10 -22
-16 -29 -14 -7 3 -19 -2 -26 -11 -45 -54 -126 39 -86 99 14 22 14 28 1 53 -18
34 -18 41 -1 74 11 22 11 30 0 50 -19 35 -17 54 10 86 l24 28 -24 28 c-29 34
-30 51 -5 98 18 33 18 37 3 52 -25 25 -21 86 7 109 22 17 26 17 47 3 13 -8 32
-15 42 -15z m682 -1 c15 -27 12 -72 -6 -97 -14 -20 -14 -24 0 -44 22 -32 20
-84 -4 -108 l-20 -20 21 -29 c17 -23 20 -37 15 -63 -4 -18 -6 -41 -6 -50 1
-20 2 -99 1 -125 -1 -10 2 -37 5 -60 5 -33 2 -45 -15 -62 -24 -24 -66 -28 -78
-7 -4 8 -17 14 -27 13 -41 -4 -46 32 -46 324 0 265 1 277 21 303 11 14 26 26
34 26 7 0 25 6 40 14 31 16 51 12 65 -15z m-190 -251 l-1 -183 -39 45 c-51 57
-90 130 -111 205 -9 33 -20 60 -24 60 -4 0 -22 -33 -39 -73 -17 -40 -48 -93
-70 -118 -37 -44 -111 -104 -128 -104 -4 0 -8 76 -8 170 l0 169 68 3 c37 2
131 4 210 6 l142 3 0 -183z m-116 -66 c13 -21 47 -66 75 -102 46 -57 52 -69
49 -105 l-3 -40 -209 -3 c-230 -3 -226 -4 -226 59 0 42 9 54 77 103 70 50 110
98 146 174 l30 64 19 -57 c10 -31 29 -73 42 -93z"/>
<path d="M4826 1627 c3 -10 9 -15 12 -12 3 3 0 11 -7 18 -10 9 -11 8 -5 -6z"/>
<path d="M4820 1535 c-7 -9 -8 -15 -2 -15 5 0 12 7 16 15 3 8 4 15 2 15 -2 0
-9 -7 -16 -15z"/>
<path d="M4714 1311 c-40 -24 -41 -26 -49 -83 -7 -44 -5 -50 23 -78 30 -29 84
-42 96 -21 3 4 -6 6 -19 3 -18 -3 -33 4 -56 27 -26 27 -30 37 -25 63 14 70 67
110 115 88 22 -10 23 -9 11 4 -17 22 -58 20 -96 -3z"/>
<path d="M4841 1280 c14 -31 19 -36 19 -24 0 6 -7 19 -16 30 -14 18 -14 18 -3
-6z"/>
<path d="M4716 1268 c-32 -46 -7 -109 42 -107 l27 2 -28 4 c-56 9 -62 99 -7
114 23 6 23 7 3 8 -12 1 -29 -9 -37 -21z"/>
<path d="M4753 1214 c0 -25 11 -24 26 4 7 14 5 18 -9 19 -12 1 -17 -5 -17 -23z"/>
<path d="M4846 1193 c-6 -14 -5 -15 5 -6 7 7 10 15 7 18 -3 3 -9 -2 -12 -12z"/>
<path d="M4805 1150 c-3 -5 -2 -10 4 -10 5 0 13 5 16 10 3 6 2 10 -4 10 -5 0
-13 -4 -16 -10z"/>
<path d="M4750 1090 c-30 -5 -59 -6 -64 -3 -5 4 -6 1 -2 -5 3 -6 -10 -23 -29
-38 -68 -51 -94 -149 -61 -227 17 -43 77 -94 123 -106 73 -20 177 25 228 97
26 38 30 52 30 111 0 59 -4 72 -28 104 -52 68 -94 83 -197 67z m104 -59 c44
-29 66 -70 66 -122 0 -77 -57 -129 -142 -129 -81 0 -138 59 -138 144 0 89 137
158 214 107z"/>
<path d="M6345 1014 c-102 -38 -129 -132 -58 -206 82 -85 253 -31 253 81 0 97
-99 161 -195 125z m132 -59 c30 -13 33 -18 33 -54 0 -36 -5 -44 -42 -71 -22
-16 -50 -30 -62 -29 -16 0 -12 4 14 16 19 8 43 22 53 30 35 32 10 103 -37 103
-20 0 -20 0 2 -16 29 -20 28 -49 -4 -81 -21 -21 -32 -24 -62 -20 -19 4 -43 13
-51 22 -15 14 -14 18 1 45 9 17 13 30 8 30 -5 0 -16 -14 -25 -30 -21 -40 -6
-67 40 -76 19 -3 35 -10 35 -15 0 -12 -10 -11 -51 3 -56 19 -71 51 -48 102 11
22 27 32 94 57 23 9 55 3 102 -16z"/>
<path d="M6398 920 c12 -5 25 -17 29 -26 10 -28 -35 -44 -67 -24 -12 8 -13 13
-3 29 11 17 10 19 -2 15 -18 -7 -30 -43 -17 -56 13 -13 64 -17 84 -7 23 12 32
47 18 64 -7 8 -24 15 -39 14 -26 0 -26 0 -3 -9z"/>
<path d="M520 400 c0 -11 7 -23 15 -26 11 -5 15 -23 15 -70 0 -48 -4 -66 -15
-70 -8 -4 -15 -15 -15 -25 0 -17 11 -19 133 -21 128 -3 132 -4 135 -25 3 -17
10 -23 28 -23 22 0 24 4 24 44 0 35 -4 45 -20 49 -17 4 -20 14 -20 70 0 48 4
66 15 71 8 3 15 15 15 26 0 18 -6 20 -65 20 -50 0 -67 -4 -72 -16 -3 -8 -1
-20 6 -27 6 -6 11 -39 11 -74 l0 -63 -35 0 -35 0 0 65 c0 37 4 65 10 65 6 0
10 11 10 25 0 24 -2 25 -70 25 -64 0 -70 -2 -70 -20z"/>
<path d="M866 405 c-3 -8 1 -21 9 -29 20 -19 21 -146 2 -146 -7 0 -13 -9 -13
-20 0 -19 7 -20 118 -20 l118 0 0 40 c0 33 -4 40 -19 40 -10 0 -22 -7 -25 -16
-8 -22 -70 -15 -74 9 -3 13 4 17 30 17 28 0 33 4 34 24 2 21 -3 25 -30 28 -43
4 -42 32 2 36 22 2 34 -2 38 -12 3 -9 15 -16 25 -16 15 0 19 7 19 40 l0 40
-114 0 c-91 0 -115 -3 -120 -15z"/>
<path d="M1130 400 c0 -11 7 -23 15 -26 21 -9 21 -132 0 -140 -8 -4 -15 -15
-15 -25 0 -17 8 -19 70 -19 74 0 84 8 58 49 -17 28 -3 51 32 51 25 0 30 -4 30
-24 0 -14 -4 -28 -10 -31 -5 -3 -10 -15 -10 -26 0 -17 7 -19 70 -19 62 0 70 2
70 19 0 10 -7 21 -15 25 -11 4 -15 22 -15 70 0 47 4 65 15 70 8 3 15 15 15 26
0 18 -6 20 -70 20 -63 0 -70 -2 -70 -19 0 -11 5 -23 10 -26 30 -18 -2 -46 -42
-37 -19 5 -25 32 -8 32 6 0 10 11 10 25 0 24 -2 25 -70 25 -64 0 -70 -2 -70
-20z"/>
<path d="M1460 380 c0 -32 4 -40 19 -40 10 0 24 7 31 15 7 8 19 15 26 15 21 0
20 -128 -1 -136 -8 -4 -15 -15 -15 -25 0 -17 8 -19 75 -19 67 0 75 2 75 19 0
10 -7 21 -15 25 -21 8 -22 136 -1 136 7 0 19 -7 26 -15 7 -8 21 -15 31 -15 15
0 19 8 19 40 l0 40 -135 0 -135 0 0 -40z"/>
<path d="M1750 401 c0 -12 7 -24 15 -27 11 -5 15 -23 15 -70 0 -48 -4 -66 -15
-70 -8 -4 -15 -15 -15 -25 0 -17 8 -19 75 -19 67 0 75 2 75 19 0 10 -7 21 -15
25 -33 12 -15 33 34 39 82 10 118 47 92 96 -19 34 -49 43 -157 49 -102 5 -104
4 -104 -17z m165 -41 c8 -13 -13 -40 -31 -40 -8 0 -14 10 -14 25 0 18 5 25 19
25 11 0 23 -5 26 -10z"/>
<path d="M2177 413 c-13 -13 -7 -32 13 -38 35 -11 18 -118 -21 -130 -15 -5
-19 -16 -19 -56 0 -41 3 -49 19 -49 12 0 21 9 25 25 6 25 8 25 111 25 103 0
105 0 111 -25 4 -16 13 -25 25 -25 16 0 19 8 19 50 0 38 -4 50 -15 50 -9 0
-16 10 -17 28 0 15 -2 40 -3 55 -1 16 4 35 11 42 8 7 14 23 14 34 0 20 -5 21
-133 21 -74 0 -137 -3 -140 -7z m158 -108 l0 -60 -38 -3 c-38 -3 -39 -2 -34
25 3 15 8 45 12 66 6 34 9 38 33 35 26 -3 27 -5 27 -63z"/>
<path d="M2490 400 c0 -11 7 -23 15 -26 11 -5 15 -23 15 -70 0 -48 -4 -66 -15
-70 -8 -4 -15 -15 -15 -25 0 -18 9 -19 120 -19 l120 0 0 40 c0 32 -4 40 -19
40 -10 0 -24 -7 -31 -15 -7 -8 -25 -15 -41 -15 -22 0 -29 5 -29 20 0 16 7 20
30 20 25 0 30 4 30 25 0 21 -5 25 -30 25 -23 0 -30 4 -30 20 0 16 7 20 30 20
18 0 33 -6 36 -15 7 -18 41 -20 46 -3 2 6 2 24 0 40 l-4 28 -114 0 c-108 0
-114 -1 -114 -20z"/>
<path d="M2750 380 c0 -32 4 -40 19 -40 10 0 24 7 31 15 7 8 19 15 26 15 21 0
20 -128 -1 -136 -8 -4 -15 -15 -15 -25 0 -17 8 -19 75 -19 67 0 75 2 75 19 0
10 -7 21 -15 25 -21 8 -22 136 -1 136 7 0 19 -7 26 -15 7 -8 21 -15 31 -15 15
0 19 8 19 40 l0 40 -135 0 -135 0 0 -40z"/>
<path d="M3103 405 c-59 -25 -84 -102 -54 -159 44 -81 257 -71 269 13 3 19 -1
21 -47 21 -40 0 -52 -4 -61 -20 -23 -43 -70 -13 -70 45 0 58 47 88 70 45 8
-15 21 -20 55 -20 52 0 60 9 38 39 -33 47 -133 65 -200 36z"/>
<path d="M3350 401 c0 -10 7 -24 15 -31 10 -8 15 -31 15 -66 0 -33 -5 -58 -15
-68 -8 -8 -15 -22 -15 -30 0 -13 13 -16 70 -16 57 0 70 3 70 16 0 8 -7 22 -15
31 -17 16 -16 34 3 41 6 2 18 -10 26 -26 25 -48 44 -62 87 -62 37 0 39 2 39
30 0 19 -5 30 -14 30 -8 0 -18 9 -21 20 -4 11 -18 27 -33 35 -15 8 -22 14 -15
15 24 0 73 52 73 76 0 21 -5 24 -36 24 -35 0 -41 -4 -93 -70 -20 -25 -20 -25
-21 -3 0 12 5 25 10 28 6 3 10 15 10 26 0 17 -7 19 -70 19 -62 0 -70 -2 -70
-19z"/>
<path d="M3711 401 c-55 -29 -74 -85 -51 -145 33 -89 237 -89 270 0 23 60 0
122 -56 149 -43 20 -121 18 -163 -4z m115 -54 c3 -13 4 -41 2 -63 -3 -36 -5
-39 -33 -39 -28 0 -30 3 -33 39 -5 61 4 86 33 86 17 0 26 -7 31 -23z"/>
<path d="M3960 400 c0 -11 7 -23 15 -26 11 -5 15 -23 15 -70 0 -48 -4 -66 -15
-70 -8 -4 -15 -15 -15 -25 0 -17 8 -19 75 -19 67 0 75 2 75 19 0 10 -7 21 -15
25 -11 4 -15 22 -15 71 0 61 1 65 23 65 12 0 31 -9 40 -21 31 -36 56 -8 43 47
-6 24 -8 24 -116 24 -104 0 -110 -1 -110 -20z"/>
<path d="M4265 405 c-47 -24 -65 -52 -65 -101 0 -34 6 -51 29 -76 25 -28 35
-32 93 -36 80 -5 130 14 153 59 30 58 7 122 -57 155 -36 18 -115 18 -153 -1z
m109 -51 c9 -23 7 -87 -3 -102 -4 -8 -19 -12 -32 -10 -21 3 -24 9 -27 52 -2
27 -1 55 2 62 7 19 52 18 60 -2z"/>
<path d="M4630 401 c0 -12 7 -29 15 -37 17 -18 14 -126 -4 -132 -6 -2 -11 -12
-11 -23 0 -17 8 -19 75 -19 65 0 75 2 75 18 0 9 -9 23 -20 30 -29 18 -18 29
35 34 65 8 95 31 95 73 0 53 -29 66 -155 73 -103 5 -105 5 -105 -17z m158 -54
c4 -20 -25 -34 -40 -19 -15 15 -1 44 19 40 10 -2 19 -11 21 -21z"/>
<path d="M4960 405 c0 -8 5 -23 11 -33 8 -13 5 -30 -15 -75 -14 -31 -32 -60
-41 -63 -8 -3 -15 -15 -15 -25 0 -16 8 -19 56 -19 l57 0 -6 30 c-6 30 -6 30
38 30 46 0 54 -7 34 -27 -21 -21 2 -33 67 -33 53 0 64 3 64 17 0 9 -6 24 -14
32 -7 9 -27 52 -44 96 l-30 80 -81 3 c-68 2 -81 0 -81 -13z m110 -92 c0 -7
-11 -13 -24 -13 -24 0 -24 2 -14 32 10 29 12 30 25 13 7 -11 13 -25 13 -32z"/>
<path d="M5230 400 c0 -11 7 -23 15 -26 11 -5 15 -23 15 -70 0 -48 -4 -66 -15
-70 -8 -4 -15 -15 -15 -25 0 -17 8 -19 70 -19 63 0 70 2 70 19 0 11 -4 23 -10
26 -5 3 -10 17 -10 31 0 20 5 24 30 24 35 0 49 -23 32 -51 -26 -41 -16 -49 58
-49 62 0 70 2 70 19 0 10 -7 21 -15 25 -11 4 -15 22 -15 70 0 47 4 65 15 70 8
3 15 15 15 26 0 18 -6 20 -70 20 -63 0 -70 -2 -70 -19 0 -11 5 -23 10 -26 20
-13 9 -33 -21 -37 -35 -5 -49 13 -29 37 25 30 4 45 -65 45 -59 0 -65 -2 -65
-20z"/>
<path d="M5569 418 c-7 -24 -5 -40 7 -45 20 -7 20 -131 0 -139 -8 -3 -13 -13
-12 -22 2 -14 16 -18 69 -20 72 -3 81 5 55 47 -17 28 -3 51 33 51 29 0 31 -2
27 -32 -3 -18 -7 -40 -9 -48 -3 -12 9 -16 64 -18 61 -3 67 -1 67 16 0 11 -7
22 -15 26 -11 4 -15 22 -15 70 0 47 4 65 15 70 8 3 15 15 15 26 0 18 -6 20
-64 20 -66 0 -84 -11 -65 -41 17 -27 10 -39 -26 -39 -34 0 -49 20 -25 35 6 3
10 15 10 26 0 17 -7 19 -65 19 -36 0 -65 -1 -66 -2z"/>
<path d="M5900 400 c0 -11 7 -23 15 -26 11 -5 15 -23 15 -70 0 -48 -4 -66 -15
-70 -8 -4 -15 -15 -15 -25 0 -18 9 -19 120 -19 l120 0 0 40 c0 32 -4 40 -19
40 -10 0 -24 -7 -31 -15 -7 -8 -25 -15 -41 -15 -22 0 -29 5 -29 20 0 16 7 20
30 20 25 0 30 4 30 25 0 21 -5 25 -30 25 -23 0 -30 4 -30 20 0 16 7 20 30 20
18 0 33 -6 36 -15 6 -15 39 -21 47 -7 3 4 2 22 0 40 l-5 32 -114 0 c-108 0
-114 -1 -114 -20z"/>
<path d="M6170 400 c0 -11 7 -23 15 -26 11 -5 15 -23 15 -70 0 -48 -4 -66 -15
-70 -8 -4 -15 -15 -15 -25 0 -17 8 -19 75 -19 68 0 75 2 75 20 0 11 -7 20 -15
20 -12 0 -15 13 -15 60 0 33 0 63 0 68 -1 16 39 12 52 -6 7 -10 21 -19 31 -19
13 0 17 9 17 44 l0 43 -110 0 c-104 0 -110 -1 -110 -20z"/>
<path d="M6465 402 c-41 -26 -55 -44 -62 -85 -7 -43 17 -92 57 -112 16 -8 54
-15 85 -15 94 0 145 40 145 116 0 46 -30 87 -75 104 -42 16 -117 12 -150 -8z
m110 -97 c0 -56 -2 -60 -24 -63 -29 -5 -41 12 -41 60 0 55 9 70 39 66 25 -3
26 -6 26 -63z"/>
<path d="M6830 401 c0 -12 7 -24 15 -27 11 -5 15 -23 15 -70 0 -48 -4 -66 -15
-70 -8 -4 -15 -15 -15 -25 0 -17 8 -19 75 -19 67 0 75 2 75 19 0 10 -7 21 -15
25 -34 13 -15 33 37 39 65 8 104 41 94 81 -11 44 -45 58 -161 64 -103 5 -105
4 -105 -17z m163 -45 c6 -16 -11 -36 -30 -36 -7 0 -13 11 -13 25 0 18 5 25 19
25 10 0 21 -6 24 -14z"/>
<path d="M7163 404 c-4 -10 0 -22 9 -28 14 -11 14 -17 -6 -63 -12 -28 -29 -60
-39 -70 -9 -11 -17 -27 -17 -36 0 -25 98 -25 107 0 4 9 1 19 -5 21 -30 10 -7
22 40 22 40 0 49 -3 40 -12 -7 -7 -12 -20 -12 -30 0 -16 9 -18 70 -18 58 0 70
3 70 16 0 9 -7 22 -15 28 -8 6 -30 49 -48 96 l-33 85 -77 3 c-65 2 -78 0 -84
-14z m95 -102 c-28 -5 -33 4 -18 35 l13 28 12 -30 c12 -27 12 -30 -7 -33z"/>
<path d="M7488 404 c-32 -17 -56 -54 -36 -55 66 -4 78 -2 83 9 2 6 18 12 35
12 37 0 41 -27 5 -36 -18 -4 -25 -13 -25 -30 0 -19 5 -24 25 -24 18 0 25 -5
25 -20 0 -16 -7 -20 -30 -20 -19 0 -33 7 -40 20 -8 15 -21 20 -54 20 -41 0
-43 -1 -38 -26 9 -46 55 -65 148 -62 89 3 124 21 124 63 0 24 -28 55 -51 55
-8 0 -3 6 11 13 18 9 25 21 25 42 0 21 -7 33 -25 42 -34 17 -148 16 -182 -3z"/>
<path d="M7740 401 c0 -12 7 -24 15 -27 11 -5 15 -23 15 -70 0 -48 -4 -66 -15
-70 -8 -4 -15 -15 -15 -25 0 -17 9 -19 99 -19 105 0 156 12 171 39 12 24 -9
64 -40 72 l-25 6 26 11 c31 12 43 37 29 62 -14 27 -35 32 -152 38 -106 4 -108
4 -108 -17z m165 -51 c0 -8 -10 -16 -22 -18 -18 -3 -23 2 -23 18 0 16 5 21 23
18 12 -2 22 -10 22 -18z m-11 -66 c27 -10 20 -44 -9 -44 -18 0 -25 5 -25 18 0
29 9 36 34 26z"/>
<path d="M8040 400 c0 -11 7 -23 15 -26 11 -5 15 -23 15 -70 0 -48 -4 -66 -15
-70 -8 -4 -15 -15 -15 -25 0 -16 8 -19 55 -19 l55 0 32 58 c31 54 33 56 36 28
2 -16 -1 -33 -7 -39 -6 -6 -11 -19 -11 -29 0 -16 9 -18 70 -18 62 0 70 2 70
19 0 10 -7 21 -15 25 -11 4 -15 22 -15 70 0 47 4 65 15 70 8 3 15 15 15 26 0
18 -6 20 -52 20 l-53 0 -35 -61 c-35 -61 -35 -61 -38 -29 -2 18 1 37 7 43 6 6
11 19 11 29 0 16 -9 18 -70 18 -64 0 -70 -2 -70 -20z"/>
<path d="M8360 380 c0 -36 3 -40 24 -40 13 0 26 7 30 15 3 8 12 15 21 15 22 0
22 -128 0 -136 -8 -4 -15 -15 -15 -25 0 -17 8 -19 80 -19 72 0 80 2 80 19 0
10 -9 21 -20 24 -17 4 -20 14 -20 66 0 48 4 63 16 68 10 4 22 -1 29 -10 7 -10
20 -17 29 -17 12 0 16 10 16 40 l0 40 -135 0 -135 0 0 -40z"/>
<path d="M8650 401 c0 -10 7 -21 15 -25 11 -4 15 -22 15 -71 0 -49 -4 -67 -15
-71 -8 -4 -15 -15 -15 -26 0 -17 6 -19 57 -16 l57 3 31 52 c16 29 33 53 38 53
14 0 7 -61 -8 -66 -8 -4 -15 -15 -15 -25 0 -17 8 -19 75 -19 68 0 75 2 75 20
0 11 -7 20 -15 20 -21 0 -22 138 -1 146 8 3 13 13 12 22 -2 14 -14 17 -56 17
l-54 0 -35 -60 -36 -60 -3 33 c-2 23 2 38 14 46 10 8 15 20 11 30 -5 13 -21
16 -77 16 -62 0 -70 -2 -70 -19z"/>
<path d="M9050 410 c-18 -5 -40 -16 -46 -25 -20 -27 4 -75 37 -75 11 0 19 -4
19 -10 0 -5 -7 -10 -15 -10 -8 0 -20 -9 -27 -20 -7 -11 -18 -20 -25 -20 -8 0
-13 -13 -13 -31 0 -29 1 -30 42 -27 37 3 46 8 67 41 25 37 51 49 51 23 0 -8
-4 -18 -10 -21 -5 -3 -10 -15 -10 -26 0 -17 7 -19 70 -19 62 0 70 2 70 19 0
10 -7 21 -15 25 -11 4 -15 22 -15 70 0 47 4 65 15 70 8 3 15 15 15 26 0 19 -6
20 -87 19 -49 -1 -104 -5 -123 -9z m90 -65 c0 -26 -14 -31 -39 -16 -19 12 -6
41 19 41 15 0 20 -7 20 -25z"/>
</g>
</svg>
